<svg xmlns="http://www.w3.org/2000/svg" viewBox="0 0 1600 900"><defs><linearGradient id="sky" x1="0" y1="0" x2="1" y2="1"><stop stop-color="#061827"/><stop offset=".48" stop-color="#1c6480"/><stop offset="1" stop-color="#e6b84b"/></linearGradient><linearGradient id="water" x1="0" y1="0" x2="0" y2="1"><stop stop-color="#27819a"/><stop offset="1" stop-color="#082d49"/></linearGradient></defs><rect width="1600" height="900" fill="url(#sky)"/><circle cx="1300" cy="205" r="112" fill="#ffe28b" opacity=".9"/><path d="M0 545 L190 360 300 500 440 310 560 500 760 270 900 500 1080 330 1230 520 1410 350 1600 530 V900 H0Z" fill="#123f45" opacity=".96"/><path d="M0 620 Q260 560 510 630 T1010 620 T1600 600 V900 H0Z" fill="url(#water)"/><path d="M0 690 Q350 630 700 700 T1600 675 V900 H0Z" fill="#061827" opacity=".85"/><path d="M740 620 L800 450 860 620Z" fill="#e7f0f1"/><rect x="792" y="505" width="16" height="115" fill="#e9bd4b"/><path d="M805 505 L905 560 805 575Z" fill="#0c6b4b"/></svg>